<svg width="1024" height="260" viewBox="0 0 1024 260" fill="none" xmlns="http://www.w3.org/2000/svg">
<g clip-path="url(#clip0_911_1497)">
<rect width="1024" height="260" fill="white"/>
<path d="M314.229 217.39L312.028 215.119V171.045C312.028 120.761 312.028 120.686 318.251 108.19C321.135 102.359 322.88 100.088 328.648 94.4079C334.187 88.8797 336.768 86.9108 342.004 84.4118C356.726 77.2176 371.676 76.3846 386.853 81.9127C417.739 93.1205 431.399 129.546 415.918 159.155C408.86 172.635 397.705 181.722 382.224 186.493C374.787 188.841 360.217 188.992 352.628 186.872C345.495 184.979 337.754 181.041 332.366 176.649L327.585 172.787V193.309C327.585 206.864 327.282 214.361 326.75 215.421C325.309 218.223 322.804 219.738 319.541 219.738C317.113 219.738 316.05 219.284 314.229 217.39ZM380.251 172.862C391.558 168.924 400.209 159.988 404.383 147.948C405.825 143.707 406.129 141.284 406.129 133.787C406.129 120.155 403.017 112.355 394.062 103.42C372.586 82.0642 338.134 91.3788 329.407 120.913C327.282 128.183 327.585 139.845 330.165 147.266C335.174 162.033 346.102 171.726 360.976 174.604C364.922 175.361 375.85 174.377 380.251 172.862Z" fill="#4E4E4B"/>
<path d="M600.172 185.736C582.187 180.586 567.844 165.971 562.684 147.342C561.015 141.511 561.015 140.072 560.711 94.0291C560.559 61.2388 560.711 45.866 561.318 43.8971C563.063 37.9903 569.134 36.1728 573.612 40.1864L576.116 42.3825L576.496 91.5301C576.875 129.394 577.179 141.284 577.937 143.631C580.973 152.794 587.879 161.882 595.391 166.652C597.289 167.864 601.311 169.606 604.194 170.515C612.846 173.241 613.68 173.619 614.819 175.891C617.778 181.495 613.984 187.25 607.458 187.099C606.092 187.099 602.828 186.417 600.172 185.736Z" fill="#4E4E4B"/>
<path d="M481.334 187.932C462.286 182.858 447.64 168.016 442.404 148.553C440.582 141.814 440.582 127.274 442.479 120.534C447.943 100.693 463.576 85.169 482.776 80.7011C490.82 78.8836 505.086 79.5651 513.206 82.2156C519.884 84.336 529.598 90.2428 532.33 93.6506C534.682 96.6797 534.531 100.239 531.799 103.268C528.384 107.13 525.121 106.752 518.594 101.753C515.711 99.5574 512.447 97.2855 511.385 96.7554C504.024 92.969 491.73 92.0603 483.383 94.635C466.384 99.936 455.76 116.823 456.822 136.816C457.809 155.369 468.053 169.53 484.066 174.377C488.391 175.74 490.668 175.967 496.435 175.664C502.506 175.361 504.328 174.907 509.108 172.635C512.144 171.196 516.849 168.243 519.505 166.122C523.375 163.018 524.969 162.185 527.094 162.185C531.419 162.26 534.758 165.744 534.758 170.287C534.758 175.361 519.657 185.585 508.198 188.311C501.216 189.901 488.012 189.75 481.334 187.932Z" fill="#4E4E4B"/>
<path d="M632 190.536C629.867 190.536 628.032 189.811 626.496 188.36C625.045 186.824 624.32 184.904 624.32 182.6C624.32 180.125 625.045 178.163 626.496 176.712C628.032 175.176 629.867 174.408 632 174.408C634.048 174.408 635.797 175.176 637.248 176.712C638.784 178.163 639.552 180.125 639.552 182.6C639.552 184.904 638.784 186.824 637.248 188.36C635.797 189.811 634.048 190.536 632 190.536ZM655.346 216.776C653.469 216.776 651.762 216.605 650.226 216.264C648.605 215.923 647.239 215.539 646.13 215.112L648.306 207.176C649.074 207.432 649.97 207.645 650.994 207.816C652.018 208.072 653.085 208.2 654.194 208.2C657.266 208.2 659.314 207.091 660.338 204.872C661.362 202.739 661.874 199.795 661.874 196.04V126.792H672.37V196.04C672.37 202.355 671.09 207.389 668.53 211.144C665.97 214.899 661.575 216.776 655.346 216.776ZM666.994 113.992C664.946 113.992 663.239 113.395 661.874 112.2C660.594 110.92 659.954 109.213 659.954 107.08C659.954 105.032 660.594 103.368 661.874 102.088C663.239 100.808 664.946 100.168 666.994 100.168C669.042 100.168 670.706 100.808 671.986 102.088C673.351 103.368 674.034 105.032 674.034 107.08C674.034 109.213 673.351 110.92 671.986 112.2C670.706 113.395 669.042 113.992 666.994 113.992ZM709.627 190.536C705.19 190.536 700.966 189.725 696.955 188.104C692.944 186.397 689.446 184.349 686.459 181.96L691.707 174.92C694.438 177.053 697.254 178.845 700.155 180.296C703.056 181.661 706.342 182.344 710.011 182.344C714.107 182.344 717.179 181.405 719.227 179.528C721.275 177.565 722.299 175.261 722.299 172.616C722.299 170.483 721.574 168.691 720.123 167.24C718.758 165.789 716.966 164.595 714.747 163.656C712.614 162.632 710.395 161.693 708.091 160.84C705.19 159.731 702.331 158.493 699.515 157.128C696.699 155.677 694.395 153.843 692.603 151.624C690.811 149.32 689.915 146.419 689.915 142.92C689.915 137.885 691.792 133.704 695.547 130.376C699.387 126.963 704.678 125.256 711.419 125.256C715.259 125.256 718.843 125.939 722.171 127.304C725.499 128.669 728.358 130.333 730.747 132.296L725.627 138.952C723.494 137.331 721.275 136.008 718.971 134.984C716.667 133.96 714.15 133.448 711.419 133.448C707.494 133.448 704.592 134.344 702.715 136.136C700.923 137.928 700.027 140.019 700.027 142.408C700.027 144.371 700.667 145.992 701.947 147.272C703.227 148.467 704.891 149.533 706.939 150.472C708.987 151.325 711.163 152.221 713.467 153.16C716.454 154.269 719.398 155.549 722.299 157C725.2 158.365 727.59 160.243 729.467 162.632C731.43 164.936 732.411 168.051 732.411 171.976C732.411 175.304 731.515 178.376 729.723 181.192C728.016 184.008 725.456 186.269 722.043 187.976C718.715 189.683 714.576 190.536 709.627 190.536Z" fill="#FFE70B"/>
</g>
<defs>
<clipPath id="clip0_911_1497">
<rect width="1024" height="260" fill="white"/>
</clipPath>
</defs>
</svg>
